<svg width="1913" height="656" viewBox="0 0 1913 656" fill="none" xmlns="http://www.w3.org/2000/svg">
<path d="M209.08 172.74C201.81 184.26 198.17 198.3 198.17 214.86V569.71C198.17 607.89 188.57 632.74 169.38 644.26C157.66 651.13 133.52 654.87 96.95 655.47C62.6 655.87 39.27 651.43 26.95 642.14C14.02 632.04 7.56 612.54 7.56 583.65L7.25998 535.77L82.72 572.13V580.01C82.72 594.56 86.66 601.83 94.54 601.83C101.81 601.83 105.45 594.35 105.45 579.41V520.32C92.12 523.75 79.09 525.37 66.36 525.17C36.26 524.97 16.46 513.76 6.97 491.53C2.52 481.23 0.299988 464.16 0.299988 440.32L0 256.07C0 197.69 21.52 168.49 64.55 168.49C89.6 168.49 106.47 176.57 115.16 192.73C116.77 184.65 119.5 177.99 123.34 172.73H209.08V172.74ZM114.24 431.84V275.17C114.24 262.85 110.3 256.68 102.42 256.68H98.78C90.49 256.68 86.36 262.85 86.36 275.17V431.84C86.36 442.35 90.3 447.6 98.18 447.6H102.42C110.3 447.59 114.24 442.34 114.24 431.84Z" fill="#000"/>
<path d="M429.69 250.32L429.39 446.99C429.39 483.96 417.97 507.7 395.15 518.2C384.04 523.25 362.32 525.67 330 525.47C296.26 525.27 274.44 523.14 264.54 519.11C241.31 509.01 229.69 485.47 229.69 448.5L229.39 250.62C229.39 216.07 240 192.54 261.21 180.01C275.55 171.53 298.48 167.28 330 167.28C363.33 167.28 386.46 171.02 399.4 178.49C419.59 190.22 429.69 214.16 429.69 250.32ZM345.15 420.02V283.65C345.15 269.1 340.2 261.63 330.3 261.23C319.39 260.83 313.94 268.3 313.94 283.65V420.02C313.94 430.73 319.29 436.08 330 436.08C340.09 436.08 345.15 430.73 345.15 420.02Z" fill="#000"/>
<path d="M662.73 521.53H596.97C585.86 521.53 577.68 517.79 572.42 510.32C571.61 509.11 568.38 501.64 562.72 487.9C554.23 503.46 548.98 512.25 546.96 514.26C541.91 519.11 532.82 521.53 519.69 521.53H494.84C466.96 521.53 453.02 497.69 453.02 450.01V215.17C453.02 202.24 457.01 191.94 464.99 184.26C472.97 176.58 483.52 172.74 496.66 172.74H560.9L561.2 106.07C561.2 90.52 555.24 82.23 543.32 81.22V79.7L644.53 0V475.46C644.55 491.84 650.61 507.19 662.73 521.53ZM563.03 440.02V255.17C563.03 242.24 558.28 235.78 548.79 235.78C537.47 235.78 531.82 242.45 531.82 255.78V440.33C531.82 452.05 537.47 457.91 548.79 457.91C558.28 457.9 563.03 451.94 563.03 440.02Z" fill="#000"/>
<path d="M803.03 172.74L787.88 238.5H768.18V498.5C768.18 509.61 773.73 516.08 784.85 517.89V521.53H684.55V106.07C684.55 89.91 678.69 81.63 666.97 81.22V78.8L768.18 0.0100098V172.74H803.03Z" fill="#000"/>
<path d="M1013.64 521.53H948.18C928.98 521.53 918.48 507.89 916.66 480.62H915.75C906.25 507.89 893.12 521.53 876.36 521.53H840C812.32 521.53 798.48 508.6 798.48 482.74V397.59C798.48 379.61 799.19 367.79 800.6 362.13C802.01 356.48 805.55 351.33 811.21 346.68L903.94 270.62C910.81 264.97 914.24 259.41 914.24 253.95V243.95C914.24 237.89 910.8 234.86 903.94 234.86H873.33C849.09 234.86 828.38 244.06 811.21 262.44C811.21 253.95 813.94 244.16 819.39 233.05L836.36 198.2C845.85 179.01 860.2 169.41 879.39 169.41H952.12C967.07 169.41 978.58 174.11 986.67 183.5C994.75 192.89 998.79 204.97 998.79 219.71V469.71C998.79 493.35 1003.74 510.63 1013.64 521.53ZM914.25 450.62V347.29L893.64 363.35C886.16 369.01 882.43 378.91 882.43 393.05V437.29C882.43 446.18 886.98 450.62 896.07 450.62H914.25Z" fill="#000"/>
<path d="M1216.37 464.56C1216.37 485.17 1209.5 500.32 1195.76 510.02C1180.2 520.93 1155.05 526.38 1120.3 526.38C1092.22 526.38 1071.51 523.25 1058.18 516.99C1037.17 507.5 1026.66 489.22 1026.66 462.14V379.41L1029.69 379.71C1030.7 394.66 1036.15 408.2 1046.05 420.32C1057.16 433.86 1070.39 440.93 1085.75 441.53C1098.88 442.14 1109.28 440.52 1116.96 436.68C1126.05 432.03 1130.49 424.36 1130.29 413.65C1129.88 403.55 1125.44 394.86 1116.96 387.59C1115.54 386.58 1106.96 381.23 1091.2 371.53C1067.56 357.19 1054.33 348.8 1051.5 346.38C1034.73 332.64 1026.35 317.09 1026.35 299.71V235.47C1026.35 190.01 1059.08 167.09 1124.53 166.68C1185.74 166.48 1216.35 188.2 1216.35 231.83V290.01H1213.32C1207.46 264.96 1189.58 251.83 1159.68 250.62C1134.23 249.61 1121.39 259.01 1121.19 278.8C1121.19 289.91 1129.37 300.42 1145.74 310.32C1174.02 327.49 1189.27 337.09 1191.5 339.11C1208.06 353.05 1216.35 370.63 1216.35 391.84V464.56H1216.37Z" fill="#000"/>
<path d="M1479.71 521.53H1384.86L1349.1 405.47C1347.08 399.01 1343.84 395.98 1339.4 396.38C1334.95 396.79 1332.73 401.43 1332.73 410.32V498.5C1332.73 510.42 1338.28 517.29 1349.4 519.11V521.53H1249.1V106.07C1249.1 89.91 1243.24 81.63 1231.52 81.22V78.4901L1332.73 0V236.67L1349.4 211.21C1357.48 198.89 1360.51 186.06 1358.49 172.72H1466.67L1393.64 280.6L1456.67 483.94C1459.29 492.23 1461.72 498.59 1463.94 503.03C1468.18 510.91 1473.43 516.26 1479.7 519.09V521.53H1479.71Z" fill="#000"/>
<path d="M1683.35 446.99C1683.15 496.69 1662.84 521.54 1622.44 521.54H1521.83C1493.95 521.54 1480.01 507.9 1480.01 480.63V212.14C1480.01 200.02 1484.35 190.43 1493.04 183.35C1501.72 176.28 1512.23 172.74 1524.56 172.74H1641.83C1652.54 172.74 1661.42 175.97 1668.5 182.44C1676.18 189.71 1680.02 199.21 1680.02 210.93V286.39C1680.02 302.75 1672.24 317.4 1656.69 330.33L1589.11 386.39C1573.75 399.12 1566.18 411.04 1566.38 422.15C1566.78 438.92 1579.31 447.3 1603.96 447.3H1626.69C1653.36 447.3 1670.43 437.5 1677.9 417.91L1680.63 417.61C1682.64 425.27 1683.55 435.07 1683.35 446.99ZM1596.68 260.02V255.17C1596.68 239.62 1591.12 232.04 1580.01 232.44C1568.49 232.85 1562.74 241.33 1562.74 257.89V312.44L1582.13 296.08C1591.83 288.2 1596.68 276.18 1596.68 260.02Z" fill="#000"/>
<path d="M1912.14 270.62L1834.26 343.05V261.53C1834.26 244.56 1828.6 236.07 1817.29 236.07C1804.76 235.67 1798.5 244.36 1798.5 262.13V496.38C1798.5 508.91 1804.05 516.08 1815.17 517.9V521.54H1714.87V267.59C1714.87 251.43 1709.01 243.15 1697.29 242.74V240.01L1798.5 159.4V194.55C1814.26 177.99 1833.65 169.6 1856.68 169.4C1893.65 169 1912.14 186.88 1912.14 223.04V270.62Z" fill="#000"/>
</svg>
