<svg width="2459" height="638" viewBox="0 0 2459 638" fill="none" xmlns="http://www.w3.org/2000/svg">
<path d="M318.83 637.66C494.915 637.66 637.66 494.915 637.66 318.83C637.66 142.745 494.915 0 318.83 0C142.745 0 0 142.745 0 318.83C0 494.915 142.745 637.66 318.83 637.66Z" fill="#666666"/>
<path d="M248.181 247.61V257.14C248.181 260.62 250.831 263.49 254.211 263.86L261.061 265.16C280.231 268.8 299.531 270.62 318.831 270.62C338.131 270.62 357.431 268.8 376.601 265.16L383.451 263.86C386.831 263.5 389.481 260.62 389.481 257.14V247.61C420.231 249.35 437.071 255.7 437.891 261.44C437.901 261.52 437.821 270.36 391.161 283.74C375.731 288.16 359.561 290.98 343.121 292.13C327.071 293.21 310.592 293.21 294.572 292.13C278.112 290.98 261.941 288.16 246.511 283.74C199.851 270.36 199.761 261.52 199.781 261.43C200.591 255.7 217.431 249.34 248.181 247.61ZM264.021 188.65C267.061 186.23 270.981 185.33 274.771 186.2L299.611 191.86C312.201 194.72 325.461 194.73 338.061 191.86L362.901 186.2C366.701 185.33 370.611 186.23 373.651 188.65C376.671 191.06 378.411 194.66 378.411 198.53V230.16L374.541 230.9C337.581 237.92 300.101 237.91 263.141 230.9L259.271 230.16V198.53C259.261 194.66 260.991 191.06 264.021 188.65ZM259.261 241.43L261.061 241.77C280.231 245.41 299.531 247.23 318.831 247.23C338.131 247.23 357.431 245.41 376.601 241.77L378.401 241.43V253.53L374.531 254.27C337.571 261.29 300.091 261.29 263.131 254.27L259.261 253.53V241.43V241.43ZM243.451 294.39C259.621 299.02 276.551 301.98 293.801 303.18C302.071 303.74 310.491 304.02 318.831 304.02C327.171 304.02 335.591 303.74 343.871 303.18C361.101 301.98 378.031 299.02 394.201 294.39C444.961 279.83 450.071 268.28 448.851 259.85C446.481 243.27 416.411 237.92 389.481 236.49V198.52C389.481 191.26 386.231 184.51 380.551 179.98C374.861 175.44 367.531 173.77 360.431 175.38L335.592 181.04C324.612 183.55 313.051 183.55 302.061 181.04L277.221 175.38C270.121 173.77 262.791 175.44 257.101 179.98C251.421 184.51 248.171 191.27 248.171 198.52V236.49C221.241 237.92 191.161 243.27 188.801 259.84C187.591 268.29 192.701 279.84 243.451 294.39Z" fill="white" stroke="white" stroke-width="5" stroke-miterlimit="10"/>
<path d="M447.101 429.06C365.161 459.14 274.841 459.38 192.751 429.73L175.821 423.62L185.651 392C186.401 389.59 188.501 387.8 191.001 387.43L228.791 381.88C231.911 381.42 234.751 379.68 236.581 377.11C238.401 374.54 239.111 371.3 238.511 368.21L233.431 341.8L255.851 334.95L265.511 362.47C266.911 366.44 269.691 369.8 273.341 371.92L303.881 389.58C313.101 394.92 324.561 394.92 333.791 389.58L364.331 371.92C367.981 369.81 370.761 366.45 372.161 362.47L381.821 334.95L404.241 341.8L399.161 368.21C398.561 371.3 399.271 374.55 401.091 377.11C402.921 379.68 405.751 381.42 408.881 381.88L446.671 387.43C449.171 387.8 451.271 389.59 452.021 392L461.861 423.64L447.101 429.06ZM473.651 424.28L462.591 388.7C460.581 382.25 454.961 377.44 448.271 376.46L410.481 370.91L409.671 376.39L410.031 370.29L415.851 340.04C416.501 336.64 414.491 333.32 411.191 332.31L381.071 323.11C377.571 322.04 373.921 323.92 372.741 327.33L361.701 358.77C361.181 360.26 360.141 361.51 358.781 362.3L328.251 379.96C322.441 383.32 315.241 383.31 309.431 379.96L278.901 362.3C277.531 361.51 276.501 360.25 275.971 358.77L264.941 327.34C263.741 323.92 260.071 322.05 256.591 323.11L226.481 332.31C223.161 333.32 221.161 336.66 221.821 340.04L227.631 370.28L227.181 370.89L189.401 376.44C182.701 377.42 177.081 382.23 175.081 388.68L164.021 424.25C162.941 427.71 164.771 431.38 168.171 432.61L188.991 440.13C230.941 455.28 274.971 462.86 319.011 462.86C363.711 462.86 408.421 455.05 450.931 439.44L469.531 432.61C472.901 431.39 474.721 427.72 473.651 424.28Z" fill="white" stroke="white" stroke-width="5" stroke-miterlimit="10"/>
<path d="M916.24 161.53C909.65 171.96 906.36 184.68 906.36 199.68V521.06C906.36 555.64 897.67 578.15 880.29 588.58C869.68 594.8 847.81 598.19 814.7 598.73C783.59 599.09 762.46 595.07 751.3 586.65C739.59 577.5 733.73 559.84 733.73 533.68L733.46 490.32L801.8 523.25V530.39C801.8 543.56 805.37 550.15 812.5 550.15C819.09 550.15 822.38 543.38 822.38 529.84V476.32C810.3 479.43 798.5 480.89 786.98 480.71C759.71 480.53 741.79 470.38 733.19 450.25C729.16 440.92 727.15 425.46 727.15 403.87L726.88 237C726.88 184.13 746.37 157.68 785.34 157.68C808.03 157.68 823.3 165 831.17 179.64C832.63 172.32 835.1 166.29 838.58 161.53H916.24V161.53ZM830.34 396.19V254.3C830.34 243.14 826.77 237.56 819.64 237.56H816.35C808.85 237.56 805.1 243.14 805.1 254.3V396.19C805.1 405.71 808.67 410.46 815.8 410.46H819.64C826.77 410.46 830.34 405.7 830.34 396.19Z" fill="#666666"/>
<path d="M1116.04 231.79L1115.77 409.91C1115.77 443.39 1105.43 464.89 1084.76 474.41C1074.7 478.98 1055.02 481.18 1025.75 481C995.19 480.82 975.431 478.89 966.471 475.24C945.431 466.09 934.911 444.78 934.911 411.29L934.641 232.07C934.641 200.78 944.25 179.47 963.46 168.12C976.45 160.44 997.221 156.59 1025.76 156.59C1055.95 156.59 1076.9 159.98 1088.61 166.74C1106.89 177.36 1116.04 199.04 1116.04 231.79ZM1039.47 385.48V261.98C1039.47 248.81 1034.98 242.04 1026.02 241.67C1016.14 241.31 1011.2 248.08 1011.2 261.98V385.48C1011.2 395.18 1016.05 400.03 1025.75 400.03C1034.9 400.03 1039.47 395.18 1039.47 385.48Z" fill="#666666"/>
<path d="M1327.1 477.42H1267.54C1257.47 477.42 1250.06 474.04 1245.31 467.27C1244.58 466.17 1241.65 459.4 1236.53 446.96C1228.85 461.05 1224.09 469.01 1222.26 470.84C1217.68 475.23 1209.45 477.43 1197.56 477.43H1175.06C1149.81 477.43 1137.18 455.84 1137.18 412.66V199.96C1137.18 188.25 1140.79 178.92 1148.02 171.97C1155.25 165.02 1164.81 161.54 1176.7 161.54H1234.88L1235.15 101.16C1235.15 87.07 1229.75 79.57 1218.96 78.66V77.29L1310.63 5.10999V435.72C1310.63 450.53 1316.12 464.44 1327.1 477.42ZM1236.8 403.6V236.18C1236.8 224.47 1232.5 218.62 1223.9 218.62C1213.65 218.62 1208.53 224.66 1208.53 236.73V403.87C1208.53 414.48 1213.65 419.79 1223.9 419.79C1232.5 419.79 1236.8 414.4 1236.8 403.6Z" fill="#666666"/>
<path d="M1454.17 161.53L1440.45 221.09H1422.61V456.57C1422.61 466.63 1427.64 472.49 1437.7 474.14V477.43H1346.86V101.15C1346.86 86.51 1341.55 79.01 1330.94 78.65V76.45L1422.61 5.08997V161.53H1454.17V161.53Z" fill="#666666"/>
<path d="M1644.91 477.42H1585.63C1568.25 477.42 1558.73 465.07 1557.09 440.37H1556.27C1547.67 465.07 1535.78 477.42 1520.59 477.42H1487.66C1462.59 477.42 1450.06 465.71 1450.06 442.29V365.17C1450.06 348.89 1450.7 338.18 1451.98 333.06C1453.26 327.94 1456.46 323.27 1461.59 319.06L1545.57 250.17C1551.79 245.05 1554.9 240.02 1554.9 235.08V226.02C1554.9 220.53 1551.79 217.79 1545.57 217.79H1517.85C1495.89 217.79 1477.14 226.12 1461.59 242.76C1461.59 235.08 1464.06 226.2 1469 216.14L1484.37 184.58C1492.97 167.2 1505.96 158.51 1523.34 158.51H1589.21C1602.75 158.51 1613.18 162.76 1620.5 171.27C1627.82 179.78 1631.48 190.71 1631.48 204.07V430.49C1631.46 451.9 1635.95 467.54 1644.91 477.42ZM1554.89 413.2V319.61L1536.23 334.16C1529.46 339.28 1526.08 348.25 1526.08 361.06V401.13C1526.08 409.18 1530.2 413.21 1538.43 413.21H1554.89V413.2Z" fill="#666666"/>
<path d="M1828.52 425.83C1828.52 444.49 1822.3 458.21 1809.86 467C1795.77 476.88 1772.99 481.82 1741.52 481.82C1716.09 481.82 1697.33 478.98 1685.26 473.31C1666.23 464.71 1656.72 448.15 1656.72 423.63V348.71L1659.47 348.98C1660.38 362.52 1665.32 374.78 1674.29 385.76C1684.35 398.02 1696.34 404.42 1710.24 404.97C1722.13 405.52 1731.55 404.06 1738.51 400.58C1746.74 396.37 1750.77 389.42 1750.59 379.72C1750.22 370.57 1746.2 362.7 1738.51 356.12C1737.23 355.21 1729.45 350.36 1715.18 341.57C1693.77 328.58 1681.79 320.99 1679.23 318.79C1664.04 306.35 1656.45 292.26 1656.45 276.52V218.34C1656.45 177.17 1686.09 156.41 1745.37 156.04C1800.81 155.86 1828.53 175.53 1828.53 215.05V267.74H1825.79C1820.48 245.05 1804.29 233.16 1777.21 232.06C1754.16 231.15 1742.54 239.65 1742.35 257.58C1742.35 267.65 1749.76 277.16 1764.58 286.12C1790.19 301.67 1804.01 310.37 1806.02 312.19C1821.02 324.81 1828.52 340.73 1828.52 359.94V425.83Z" fill="#666666"/>
<path d="M2067.02 477.42H1981.12L1948.73 372.3C1946.9 366.45 1943.97 363.7 1939.95 364.07C1935.92 364.44 1933.91 368.65 1933.91 376.69V456.56C1933.91 467.36 1938.94 473.58 1949 475.22V477.42H1858.16V101.15C1858.16 86.51 1852.85 79.01 1842.24 78.65V76.18L1933.91 5.09998V219.45L1949 196.4C1956.32 185.24 1959.06 173.62 1957.23 161.54H2055.21L1989.07 259.25L2046.16 443.41C2048.54 450.91 2050.73 456.68 2052.75 460.7C2056.59 467.84 2061.35 472.69 2067.02 475.25V477.42V477.42Z" fill="#666666"/>
<path d="M2251.45 409.91C2251.27 454.92 2232.88 477.42 2196.28 477.42H2105.16C2079.91 477.42 2067.29 465.07 2067.29 440.37V197.21C2067.29 186.23 2071.22 177.54 2079.09 171.14C2086.95 164.74 2096.47 161.53 2107.63 161.53H2213.84C2223.54 161.53 2231.59 164.46 2237.99 170.31C2244.94 176.9 2248.42 185.5 2248.42 196.11V264.45C2248.42 279.27 2241.37 292.54 2227.29 304.25L2166.09 355.02C2152.18 366.55 2145.32 377.35 2145.51 387.4C2145.87 402.59 2157.22 410.18 2179.54 410.18H2200.12C2224.27 410.18 2239.73 401.31 2246.5 383.56L2248.97 383.29C2250.81 390.24 2251.63 399.12 2251.45 409.91ZM2172.96 240.57V236.18C2172.96 222.09 2167.93 215.23 2157.87 215.6C2147.44 215.97 2142.23 223.65 2142.23 238.65V288.05L2159.79 273.23C2168.57 266.1 2172.96 255.21 2172.96 240.57Z" fill="#666666"/>
<path d="M2458.66 250.18L2388.13 315.77V241.94C2388.13 226.57 2383.01 218.89 2372.76 218.89C2361.41 218.53 2355.74 226.39 2355.74 242.49V454.64C2355.74 465.99 2360.77 472.48 2370.83 474.13V477.42H2279.99V247.43C2279.99 232.79 2274.68 225.29 2264.07 224.93V222.46L2355.74 149.46V181.3C2370.01 166.3 2387.58 158.7 2408.43 158.52C2441.91 158.16 2458.65 174.35 2458.65 207.1V250.18H2458.66Z" fill="#666666"/>
</svg>
