<?xml version="1.0" encoding="utf-8"?>
<!-- Generator: Adobe Illustrator 23.1.0, SVG Export Plug-In . SVG Version: 6.00 Build 0)  -->
<svg version="1.1" id="Camada_1" xmlns="http://www.w3.org/2000/svg" xmlns:xlink="http://www.w3.org/1999/xlink" x="0px" y="0px"
	 viewBox="0 0 2834.65 1984.25" style="enable-background:new 0 0 2834.65 1984.25;" xml:space="preserve">
<style type="text/css">
	.st0{stroke:#000000;stroke-width:5;stroke-miterlimit:10;}
	.st1{fill:#FFFFFF;}
	.st2{fill:#FFFFFF;stroke:#FFFFFF;stroke-width:5;stroke-miterlimit:10;}
	.st3{stroke:#000000;stroke-width:10;stroke-miterlimit:10;}
</style>
<rect x="14.07" y="-2196.9" class="st0" width="2864.84" height="2152.42"/>
<rect x="-2972.03" y="-2196.9" class="st0" width="2864.84" height="2152.42"/>
<rect x="-6033.92" y="-2196.9" class="st0" width="2864.84" height="2152.42"/>
<g>
	<g>
		<circle class="st1" cx="-5636.27" cy="-1005.4" r="318.83"/>
		<g>
			<path class="st0" d="M-5706.92-1076.63v9.53c0,3.48,2.65,6.35,6.03,6.72l6.85,1.3c19.17,3.64,38.47,5.46,57.77,5.46
				c19.3,0,38.6-1.82,57.77-5.46l6.85-1.3c3.38-0.36,6.03-3.24,6.03-6.72v-9.53c30.75,1.74,47.59,8.09,48.41,13.83
				c0.01,0.08-0.07,8.92-46.73,22.3c-15.43,4.42-31.6,7.24-48.04,8.39c-16.05,1.08-32.53,1.08-48.55,0
				c-16.46-1.15-32.63-3.97-48.06-8.39c-46.66-13.38-46.75-22.22-46.73-22.31C-5754.51-1068.54-5737.67-1074.9-5706.92-1076.63z
				 M-5691.08-1135.59c3.04-2.42,6.96-3.32,10.75-2.45l24.84,5.66c12.59,2.86,25.85,2.87,38.45,0l24.84-5.66
				c3.8-0.87,7.71,0.03,10.75,2.45c3.02,2.41,4.76,6.01,4.76,9.88v31.63l-3.87,0.74c-36.96,7.02-74.44,7.01-111.4,0l-3.87-0.74
				v-31.63C-5695.84-1129.57-5694.11-1133.18-5691.08-1135.59z M-5695.84-1082.8l1.8,0.34c19.17,3.64,38.47,5.46,57.77,5.46
				c19.3,0,38.6-1.82,57.77-5.46l1.8-0.34v12.1l-3.87,0.74c-36.96,7.02-74.44,7.02-111.4,0l-3.87-0.74V-1082.8z M-5711.65-1029.85
				c16.17,4.63,33.1,7.59,50.35,8.79c8.27,0.56,16.69,0.84,25.03,0.84c8.34,0,16.76-0.28,25.04-0.84
				c17.23-1.2,34.16-4.16,50.33-8.79c50.76-14.56,55.87-26.11,54.65-34.54c-2.37-16.58-32.44-21.93-59.37-23.36v-37.97
				c0-7.26-3.25-14.01-8.93-18.54c-5.69-4.54-13.02-6.21-20.12-4.6l-24.84,5.66c-10.98,2.51-22.54,2.51-33.53,0l-24.84-5.66
				c-7.1-1.61-14.43,0.06-20.12,4.6c-5.68,4.53-8.93,11.29-8.93,18.54v37.97c-26.93,1.43-57.01,6.78-59.37,23.35
				C-5767.51-1055.95-5762.4-1044.4-5711.65-1029.85z"/>
			<path class="st0" d="M-5508-895.18c-81.94,30.08-172.26,30.32-254.35,0.67l-16.93-6.11l9.83-31.62c0.75-2.41,2.85-4.2,5.35-4.57
				l37.79-5.55c3.12-0.46,5.96-2.2,7.79-4.77c1.82-2.57,2.53-5.81,1.93-8.9l-5.08-26.41l22.42-6.85l9.66,27.52
				c1.4,3.97,4.18,7.33,7.83,9.45l30.54,17.66c9.22,5.34,20.68,5.34,29.91,0l30.54-17.66c3.65-2.11,6.43-5.47,7.83-9.45l9.66-27.52
				l22.42,6.85l-5.08,26.41c-0.6,3.09,0.11,6.34,1.93,8.9c1.83,2.57,4.66,4.31,7.79,4.77l37.79,5.55c2.5,0.37,4.6,2.16,5.35,4.57
				l9.84,31.64L-5508-895.18z M-5481.45-899.95l-11.06-35.58l0,0c-2.01-6.45-7.63-11.26-14.32-12.24l-37.79-5.55l-0.81,5.48
				l0.36-6.1l5.82-30.25c0.65-3.4-1.36-6.72-4.66-7.73l-30.12-9.2c-3.5-1.07-7.15,0.81-8.33,4.22l-11.04,31.44
				c-0.52,1.49-1.56,2.74-2.92,3.53l-30.53,17.66c-5.81,3.36-13.01,3.35-18.82,0l-30.53-17.66c-1.37-0.79-2.4-2.05-2.93-3.53
				l-11.03-31.43c-1.2-3.42-4.87-5.29-8.35-4.23l-30.11,9.2c-3.32,1.01-5.32,4.35-4.66,7.73l5.81,30.24l-0.45,0.61l-37.78,5.55
				c-6.7,0.98-12.32,5.79-14.32,12.24l-11.06,35.57c-1.08,3.46,0.75,7.13,4.15,8.36l20.82,7.52
				c41.95,15.15,85.98,22.73,130.02,22.73c44.7,0,89.41-7.81,131.92-23.42l18.6-6.83C-5482.2-892.85-5480.38-896.51-5481.45-899.95z
				"/>
		</g>
	</g>
	<g>
		<g>
			<path class="st1" d="M-5038.86-1162.71c-6.59,10.43-9.88,23.15-9.88,38.15v321.38c0,34.58-8.69,57.09-26.07,67.52
				c-10.61,6.22-32.48,9.61-65.59,10.15c-31.11,0.36-52.24-3.66-63.4-12.08c-11.71-9.15-17.56-26.81-17.56-52.97l-0.27-43.36
				l68.34,32.93v7.14c0,13.17,3.57,19.76,10.7,19.76c6.59,0,9.88-6.77,9.88-20.31v-53.52c-12.08,3.11-23.88,4.57-35.4,4.39
				c-27.27-0.18-45.19-10.33-53.79-30.46c-4.03-9.33-6.04-24.79-6.04-46.38l-0.27-166.87c0-52.87,19.49-79.32,58.46-79.32
				c22.69,0,37.96,7.32,45.83,21.96c1.46-7.32,3.93-13.35,7.41-18.11H-5038.86z M-5124.76-928.05v-141.89
				c0-11.16-3.57-16.74-10.7-16.74h-3.29c-7.5,0-11.25,5.58-11.25,16.74v141.89c0,9.52,3.57,14.27,10.7,14.27h3.84
				C-5128.33-913.78-5124.76-918.53-5124.76-928.05z"/>
			<path class="st1" d="M-4839.06-1092.45l-0.27,178.12c0,33.48-10.34,54.98-31.01,64.5c-10.06,4.57-29.74,6.77-59.01,6.59
				c-30.56-0.18-50.32-2.11-59.28-5.76c-21.04-9.15-31.56-30.46-31.56-63.95l-0.27-179.22c0-31.29,9.61-52.6,28.82-63.95
				c12.99-7.68,33.76-11.53,62.3-11.53c30.19,0,51.14,3.39,62.85,10.15C-4848.21-1146.88-4839.06-1125.2-4839.06-1092.45z
				 M-4915.63-938.75v-123.5c0-13.17-4.49-19.94-13.45-20.31c-9.88-0.36-14.82,6.41-14.82,20.31v123.5c0,9.7,4.85,14.55,14.55,14.55
				C-4920.2-924.21-4915.63-929.05-4915.63-938.75z"/>
			<path class="st1" d="M-4628-846.81h-59.56c-10.06,0-17.48-3.38-22.23-10.15c-0.73-1.1-3.66-7.87-8.78-20.31
				c-7.68,14.09-12.44,22.05-14.27,23.88c-4.58,4.39-12.81,6.59-24.7,6.59h-22.5c-25.25,0-37.87-21.59-37.87-64.77v-212.7
				c0-11.71,3.61-21.04,10.84-27.99c7.23-6.95,16.78-10.43,28.68-10.43h58.18l0.27-60.38c0-14.09-5.4-21.59-16.19-22.5v-1.37
				l91.67-72.18v430.61C-4644.47-873.71-4638.98-859.8-4628-846.81z M-4718.3-920.64v-167.42c0-11.71-4.3-17.56-12.9-17.56
				c-10.25,0-15.37,6.04-15.37,18.11v167.14c0,10.61,5.12,15.92,15.37,15.92C-4722.6-904.45-4718.3-909.84-4718.3-920.64z"/>
			<path class="st1" d="M-4500.93-1162.71l-13.72,59.56h-17.84v235.48c0,10.06,5.03,15.92,15.09,17.57v3.29h-90.84v-376.27
				c0-14.64-5.31-22.14-15.92-22.5v-2.2l91.67-71.36v156.44H-4500.93z"/>
			<path class="st1" d="M-4310.19-846.81h-59.28c-17.38,0-26.9-12.35-28.54-37.05h-0.82c-8.6,24.7-20.49,37.05-35.68,37.05h-32.93
				c-25.07,0-37.6-11.71-37.6-35.13v-77.12c0-16.28,0.64-26.99,1.92-32.11c1.28-5.12,4.48-9.79,9.61-14l83.98-68.89
				c6.22-5.12,9.33-10.15,9.33-15.09v-9.06c0-5.49-3.11-8.23-9.33-8.23h-27.72c-21.96,0-40.71,8.33-56.26,24.98
				c0-7.68,2.47-16.56,7.41-26.62l15.37-31.56c8.6-17.38,21.59-26.07,38.97-26.07h65.87c13.54,0,23.97,4.25,31.29,12.76
				c7.32,8.51,10.98,19.44,10.98,32.8v226.42C-4323.64-872.34-4319.15-856.69-4310.19-846.81z M-4400.21-911.03v-93.59l-18.66,14.55
				c-6.77,5.12-10.15,14.09-10.15,26.9v40.07c0,8.05,4.12,12.08,12.35,12.08H-4400.21z"/>
			<path class="st1" d="M-4126.58-898.41c0,18.66-6.22,32.38-18.66,41.17c-14.09,9.88-36.87,14.82-68.34,14.82
				c-25.43,0-44.19-2.84-56.26-8.51c-19.03-8.6-28.54-25.16-28.54-49.68v-74.92l2.74,0.27c0.91,13.54,5.85,25.8,14.82,36.78
				c10.06,12.26,22.05,18.66,35.95,19.21c11.89,0.55,21.31-0.91,28.27-4.39c8.23-4.21,12.26-11.16,12.08-20.86
				c-0.37-9.15-4.39-17.02-12.08-23.6c-1.28-0.91-9.06-5.76-23.33-14.55c-21.41-12.99-33.39-20.58-35.95-22.78
				c-15.19-12.44-22.78-26.53-22.78-42.27v-58.18c0-41.17,29.64-61.93,88.92-62.3c55.44-0.18,83.16,19.49,83.16,59.01v52.69h-2.74
				c-5.31-22.69-21.5-34.58-48.58-35.68c-23.05-0.91-34.68,7.59-34.86,25.52c0,10.06,7.41,19.58,22.23,28.54
				c25.61,15.55,39.43,24.25,41.44,26.07c15,12.62,22.5,28.54,22.5,47.75V-898.41z"/>
			<path class="st1" d="M-3888.08-846.81h-85.9l-32.39-105.12c-1.83-5.85-4.76-8.6-8.78-8.23c-4.03,0.37-6.04,4.58-6.04,12.62v79.87
				c0,10.8,5.03,17.02,15.09,18.66v2.2h-90.84v-376.27c0-14.64-5.31-22.14-15.92-22.5v-2.47l91.67-71.08v214.35l15.09-23.05
				c7.32-11.16,10.06-22.78,8.23-34.86h97.98l-66.14,97.71l57.09,184.16c2.38,7.5,4.57,13.27,6.59,17.29
				c3.84,7.14,8.6,11.99,14.27,14.55V-846.81z"/>
			<path class="st1" d="M-3703.65-914.33c-0.18,45.01-18.57,67.51-55.17,67.51h-91.12c-25.25,0-37.87-12.35-37.87-37.05v-243.16
				c0-10.98,3.93-19.67,11.8-26.07c7.86-6.4,17.38-9.61,28.54-9.61h106.21c9.7,0,17.75,2.93,24.15,8.78
				c6.95,6.59,10.43,15.19,10.43,25.8v68.34c0,14.82-7.05,28.09-21.13,39.8l-61.2,50.77c-13.91,11.53-20.77,22.33-20.58,32.38
				c0.36,15.19,11.71,22.78,34.03,22.78h20.58c24.15,0,39.61-8.87,46.38-26.62l2.47-0.27
				C-3704.29-933.99-3703.47-925.12-3703.65-914.33z M-3782.14-1083.66v-4.39c0-14.09-5.03-20.95-15.09-20.58
				c-10.43,0.37-15.64,8.05-15.64,23.05v49.4l17.56-14.82C-3786.53-1058.14-3782.14-1069.02-3782.14-1083.66z"/>
			<path class="st1" d="M-3496.44-1074.06l-70.53,65.59v-73.83c0-15.37-5.12-23.05-15.37-23.05c-11.35-0.36-17.02,7.5-17.02,23.6
				v212.15c0,11.35,5.03,17.84,15.09,19.49v3.29h-90.84v-229.99c0-14.64-5.31-22.14-15.92-22.5v-2.47l91.67-73v31.84
				c14.27-15,31.84-22.6,52.69-22.78c33.48-0.36,50.22,15.83,50.22,48.58V-1074.06z"/>
		</g>
	</g>
</g>
<g>
	<g>
		<circle cx="-5636.27" cy="1071.22" r="318.83"/>
		<g>
			<path class="st2" d="M-5706.92,1000v9.53c0,3.48,2.65,6.35,6.03,6.72l6.85,1.3c19.17,3.64,38.47,5.46,57.77,5.46
				c19.3,0,38.6-1.82,57.77-5.46l6.85-1.3c3.38-0.36,6.03-3.24,6.03-6.72V1000c30.75,1.74,47.59,8.09,48.41,13.83
				c0.01,0.08-0.07,8.92-46.73,22.3c-15.43,4.42-31.6,7.24-48.04,8.39c-16.05,1.08-32.53,1.08-48.55,0
				c-16.46-1.15-32.63-3.97-48.06-8.39c-46.66-13.38-46.75-22.22-46.73-22.31C-5754.51,1008.09-5737.67,1001.73-5706.92,1000z
				 M-5691.08,941.04c3.04-2.42,6.96-3.32,10.75-2.45l24.84,5.66c12.59,2.86,25.85,2.87,38.45,0l24.84-5.66
				c3.8-0.87,7.71,0.03,10.75,2.45c3.02,2.41,4.76,6.01,4.76,9.88v31.63l-3.87,0.74c-36.96,7.02-74.44,7.01-111.4,0l-3.87-0.74
				v-31.63C-5695.84,947.05-5694.11,943.45-5691.08,941.04z M-5695.84,993.82l1.8,0.34c19.17,3.64,38.47,5.46,57.77,5.46
				c19.3,0,38.6-1.82,57.77-5.46l1.8-0.34v12.1l-3.87,0.74c-36.96,7.02-74.44,7.02-111.4,0l-3.87-0.74V993.82z M-5711.65,1046.78
				c16.17,4.63,33.1,7.59,50.35,8.79c8.27,0.56,16.69,0.84,25.03,0.84c8.34,0,16.76-0.28,25.04-0.84
				c17.23-1.2,34.16-4.16,50.33-8.79c50.76-14.56,55.87-26.11,54.65-34.54c-2.37-16.58-32.44-21.93-59.37-23.36v-37.97
				c0-7.26-3.25-14.01-8.93-18.54c-5.69-4.54-13.02-6.21-20.12-4.6l-24.84,5.66c-10.98,2.51-22.54,2.51-33.53,0l-24.84-5.66
				c-7.1-1.61-14.43,0.06-20.12,4.6c-5.68,4.53-8.93,11.29-8.93,18.54v37.97c-26.93,1.43-57.01,6.78-59.37,23.35
				C-5767.51,1020.68-5762.4,1032.23-5711.65,1046.78z"/>
			<path class="st2" d="M-5508,1181.45c-81.94,30.08-172.26,30.32-254.35,0.67l-16.93-6.11l9.83-31.62c0.75-2.41,2.85-4.2,5.35-4.57
				l37.79-5.55c3.12-0.46,5.96-2.2,7.79-4.77c1.82-2.57,2.53-5.81,1.93-8.9l-5.08-26.41l22.42-6.85l9.66,27.52
				c1.4,3.97,4.18,7.33,7.83,9.45l30.54,17.66c9.22,5.34,20.68,5.34,29.91,0l30.54-17.66c3.65-2.11,6.43-5.47,7.83-9.45l9.66-27.52
				l22.42,6.85l-5.08,26.41c-0.6,3.09,0.11,6.34,1.93,8.9c1.83,2.57,4.66,4.31,7.79,4.77l37.79,5.55c2.5,0.37,4.6,2.16,5.35,4.57
				l9.84,31.64L-5508,1181.45z M-5481.45,1176.67l-11.06-35.58l0,0c-2.01-6.45-7.63-11.26-14.32-12.24l-37.79-5.55l-0.81,5.48
				l0.36-6.1l5.82-30.25c0.65-3.4-1.36-6.72-4.66-7.73l-30.12-9.2c-3.5-1.07-7.15,0.81-8.33,4.22l-11.04,31.44
				c-0.52,1.49-1.56,2.74-2.92,3.53l-30.53,17.66c-5.81,3.36-13.01,3.35-18.82,0l-30.53-17.66c-1.37-0.79-2.4-2.05-2.93-3.53
				l-11.03-31.43c-1.2-3.42-4.87-5.29-8.35-4.23l-30.11,9.2c-3.32,1.01-5.32,4.35-4.66,7.73l5.81,30.24l-0.45,0.61l-37.78,5.55
				c-6.7,0.98-12.32,5.79-14.32,12.24l-11.06,35.57c-1.08,3.46,0.75,7.13,4.15,8.36l20.82,7.52
				c41.95,15.15,85.98,22.73,130.02,22.73c44.7,0,89.41-7.81,131.92-23.42l18.6-6.83
				C-5482.2,1183.78-5480.38,1180.11-5481.45,1176.67z"/>
		</g>
	</g>
	<g>
		<g>
			<path d="M-5038.86,913.92c-6.59,10.43-9.88,23.15-9.88,38.15v321.38c0,34.58-8.69,57.09-26.07,67.52
				c-10.61,6.22-32.48,9.61-65.59,10.15c-31.11,0.36-52.24-3.66-63.4-12.08c-11.71-9.15-17.57-26.81-17.57-52.97l-0.27-43.36
				l68.34,32.93v7.14c0,13.17,3.57,19.76,10.7,19.76c6.59,0,9.88-6.77,9.88-20.31v-53.52c-12.08,3.11-23.88,4.57-35.4,4.39
				c-27.27-0.18-45.19-10.33-53.79-30.46c-4.03-9.33-6.04-24.79-6.04-46.38l-0.27-166.87c0-52.87,19.49-79.32,58.46-79.32
				c22.69,0,37.96,7.32,45.83,21.96c1.46-7.32,3.93-13.35,7.41-18.11H-5038.86z M-5124.76,1148.58v-141.89
				c0-11.16-3.57-16.74-10.7-16.74h-3.29c-7.5,0-11.25,5.58-11.25,16.74v141.89c0,9.52,3.57,14.27,10.7,14.27h3.84
				C-5128.33,1162.85-5124.76,1158.09-5124.76,1148.58z"/>
			<path d="M-4839.06,984.18l-0.27,178.12c0,33.48-10.34,54.98-31.01,64.5c-10.06,4.57-29.74,6.77-59.01,6.59
				c-30.56-0.18-50.32-2.11-59.28-5.76c-21.04-9.15-31.56-30.46-31.56-63.95l-0.27-179.22c0-31.29,9.61-52.6,28.82-63.95
				c12.99-7.68,33.76-11.53,62.3-11.53c30.19,0,51.14,3.39,62.85,10.15C-4848.21,929.75-4839.06,951.43-4839.06,984.18z
				 M-4915.63,1137.87v-123.5c0-13.17-4.49-19.94-13.45-20.31c-9.88-0.36-14.82,6.41-14.82,20.31v123.5
				c0,9.7,4.85,14.55,14.55,14.55C-4920.2,1152.42-4915.63,1147.57-4915.63,1137.87z"/>
			<path d="M-4628,1229.81h-59.56c-10.07,0-17.48-3.38-22.23-10.15c-0.73-1.1-3.66-7.87-8.78-20.31
				c-7.68,14.09-12.44,22.05-14.27,23.88c-4.58,4.39-12.81,6.59-24.7,6.59h-22.5c-25.25,0-37.88-21.59-37.88-64.77v-212.7
				c0-11.71,3.61-21.04,10.84-27.99c7.23-6.95,16.79-10.43,28.68-10.43h58.18l0.27-60.38c0-14.09-5.4-21.59-16.19-22.5v-1.37
				l91.67-72.18v430.61C-4644.47,1202.92-4638.98,1216.83-4628,1229.81z M-4718.3,1155.99V988.57c0-11.71-4.3-17.56-12.9-17.56
				c-10.25,0-15.37,6.04-15.37,18.11v167.14c0,10.61,5.12,15.92,15.37,15.92C-4722.6,1172.18-4718.3,1166.79-4718.3,1155.99z"/>
			<path d="M-4500.93,913.92l-13.72,59.56h-17.84v235.48c0,10.06,5.03,15.92,15.09,17.57v3.29h-90.84V853.54
				c0-14.64-5.31-22.14-15.92-22.5v-2.2l91.67-71.36v156.44H-4500.93z"/>
			<path d="M-4310.19,1229.81h-59.28c-17.38,0-26.9-12.35-28.54-37.05h-0.82c-8.6,24.7-20.49,37.05-35.68,37.05h-32.93
				c-25.07,0-37.6-11.71-37.6-35.13v-77.12c0-16.28,0.64-26.99,1.92-32.11c1.28-5.12,4.48-9.79,9.61-14l83.98-68.89
				c6.22-5.12,9.33-10.15,9.33-15.09v-9.06c0-5.49-3.11-8.23-9.33-8.23h-27.72c-21.96,0-40.71,8.33-56.26,24.97
				c0-7.68,2.47-16.56,7.41-26.62l15.37-31.56c8.6-17.38,21.59-26.07,38.97-26.07h65.87c13.54,0,23.97,4.25,31.29,12.76
				c7.32,8.51,10.98,19.44,10.98,32.8v226.42C-4323.64,1204.29-4319.15,1219.93-4310.19,1229.81z M-4400.21,1165.59V1072
				l-18.66,14.55c-6.77,5.12-10.15,14.09-10.15,26.9v40.07c0,8.05,4.12,12.08,12.35,12.08H-4400.21z"/>
			<path d="M-4126.58,1178.22c0,18.66-6.22,32.38-18.66,41.17c-14.09,9.88-36.87,14.82-68.34,14.82c-25.43,0-44.19-2.84-56.26-8.51
				c-19.03-8.6-28.54-25.16-28.54-49.68v-74.92l2.75,0.27c0.91,13.54,5.85,25.8,14.82,36.78c10.06,12.26,22.05,18.66,35.95,19.21
				c11.89,0.55,21.31-0.91,28.27-4.39c8.23-4.21,12.26-11.16,12.08-20.86c-0.37-9.15-4.39-17.02-12.08-23.6
				c-1.28-0.91-9.06-5.76-23.33-14.55c-21.41-12.99-33.39-20.58-35.95-22.78c-15.19-12.44-22.78-26.53-22.78-42.27v-58.18
				c0-41.17,29.64-61.93,88.92-62.3c55.44-0.18,83.16,19.49,83.16,59.01v52.69h-2.74c-5.31-22.69-21.5-34.58-48.58-35.68
				c-23.05-0.91-34.67,7.59-34.86,25.52c0,10.07,7.41,19.58,22.23,28.54c25.61,15.55,39.43,24.25,41.44,26.07
				c15,12.62,22.5,28.54,22.5,47.75V1178.22z"/>
			<path d="M-3888.08,1229.81h-85.9l-32.39-105.12c-1.83-5.85-4.76-8.6-8.78-8.23c-4.03,0.37-6.04,4.58-6.04,12.62v79.87
				c0,10.8,5.03,17.02,15.09,18.66v2.2h-90.84V853.54c0-14.64-5.31-22.14-15.92-22.5v-2.47l91.67-71.08v214.35l15.09-23.05
				c7.32-11.16,10.06-22.78,8.23-34.86h97.98l-66.14,97.71l57.09,184.16c2.38,7.5,4.57,13.27,6.59,17.29
				c3.84,7.14,8.6,11.99,14.27,14.55V1229.81z"/>
			<path d="M-3703.65,1162.3c-0.18,45.01-18.57,67.51-55.17,67.51h-91.12c-25.25,0-37.87-12.35-37.87-37.05V949.6
				c0-10.98,3.93-19.67,11.8-26.07c7.86-6.4,17.38-9.61,28.54-9.61h106.21c9.7,0,17.75,2.93,24.15,8.78
				c6.95,6.59,10.43,15.19,10.43,25.8v68.34c0,14.82-7.05,28.09-21.13,39.8l-61.2,50.77c-13.91,11.53-20.77,22.33-20.58,32.38
				c0.36,15.19,11.71,22.78,34.03,22.78h20.58c24.15,0,39.61-8.87,46.38-26.62l2.47-0.27
				C-3704.29,1142.63-3703.47,1151.51-3703.65,1162.3z M-3782.14,992.96v-4.39c0-14.09-5.03-20.95-15.09-20.58
				c-10.43,0.37-15.64,8.05-15.64,23.05v49.4l17.56-14.82C-3786.53,1018.49-3782.14,1007.6-3782.14,992.96z"/>
			<path d="M-3496.44,1002.57l-70.53,65.59v-73.83c0-15.37-5.12-23.05-15.37-23.05c-11.35-0.36-17.02,7.5-17.02,23.6v212.15
				c0,11.35,5.03,17.84,15.09,19.49v3.29h-90.84V999.82c0-14.64-5.31-22.14-15.92-22.5v-2.47l91.67-73v31.84
				c14.27-15,31.84-22.6,52.69-22.78c33.48-0.36,50.22,15.83,50.22,48.58V1002.57z"/>
		</g>
	</g>
</g>
<g>
	<g>
		<path class="st1" d="M637.59-1272.02c-7.27,11.52-10.91,25.56-10.91,42.12v354.85c0,38.18-9.6,63.03-28.79,74.55
			c-11.72,6.87-35.86,10.61-72.43,11.21c-34.35,0.4-57.68-4.04-70-13.33c-12.93-10.1-19.39-29.6-19.39-58.49l-0.3-47.88l75.46,36.36
			v7.88c0,14.55,3.94,21.82,11.82,21.82c7.27,0,10.91-7.48,10.91-22.42v-59.09c-13.33,3.43-26.36,5.05-39.09,4.85
			c-30.1-0.2-49.9-11.41-59.39-33.64c-4.45-10.3-6.67-27.37-6.67-51.21l-0.3-184.25c0-58.38,21.52-87.58,64.55-87.58
			c25.05,0,41.92,8.08,50.61,24.24c1.61-8.08,4.34-14.74,8.18-20H637.59z M542.75-1012.92v-156.67c0-12.32-3.94-18.49-11.82-18.49
			h-3.64c-8.29,0-12.42,6.17-12.42,18.49v156.67c0,10.51,3.94,15.76,11.82,15.76h4.24C538.81-997.16,542.75-1002.41,542.75-1012.92z
			"/>
		<path class="st1" d="M858.2-1194.44l-0.3,196.67c0,36.97-11.42,60.71-34.24,71.21c-11.11,5.05-32.83,7.47-65.15,7.27
			c-33.74-0.2-55.56-2.33-65.46-6.36c-23.23-10.1-34.85-33.64-34.85-70.61l-0.3-197.88c0-34.55,10.61-58.08,31.82-70.61
			c14.34-8.48,37.27-12.73,68.79-12.73c33.33,0,56.46,3.74,69.4,11.21C848.1-1254.54,858.2-1230.6,858.2-1194.44z M773.66-1024.74
			v-136.37c0-14.55-4.95-22.02-14.85-22.42c-10.91-0.4-16.36,7.07-16.36,22.42v136.37c0,10.71,5.35,16.06,16.06,16.06
			C768.6-1008.68,773.66-1014.03,773.66-1024.74z"/>
		<path class="st1" d="M1091.24-923.22h-65.76c-11.11,0-19.29-3.74-24.55-11.21c-0.81-1.21-4.04-8.68-9.7-22.42
			c-8.49,15.56-13.74,24.35-15.76,26.36c-5.05,4.85-14.14,7.27-27.27,7.27h-24.85c-27.88,0-41.82-23.84-41.82-71.52v-234.85
			c0-12.93,3.99-23.23,11.97-30.91c7.98-7.68,18.53-11.52,31.67-11.52h64.24l0.3-66.67c0-15.55-5.96-23.84-17.88-24.85v-1.52
			l101.21-79.7v475.46C1073.06-952.92,1079.12-937.56,1091.24-923.22z M991.54-1004.74v-184.85c0-12.93-4.75-19.39-14.24-19.39
			c-11.32,0-16.97,6.67-16.97,20v184.55c0,11.72,5.65,17.58,16.97,17.58C986.79-986.86,991.54-992.82,991.54-1004.74z"/>
		<path class="st1" d="M1231.54-1272.02l-15.15,65.76h-19.7v260c0,11.11,5.55,17.58,16.67,19.39v3.64h-100.3v-415.46
			c0-16.16-5.86-24.44-17.58-24.85v-2.42l101.21-78.79v172.73H1231.54z"/>
		<path class="st1" d="M1442.15-923.22h-65.46c-19.2,0-29.7-13.64-31.52-40.91h-0.91c-9.5,27.27-22.63,40.91-39.39,40.91h-36.36
			c-27.68,0-41.52-12.93-41.52-38.79v-85.15c0-17.98,0.71-29.8,2.12-35.46c1.41-5.65,4.95-10.8,10.61-15.45l92.73-76.06
			c6.87-5.65,10.3-11.21,10.3-16.67v-10c0-6.06-3.44-9.09-10.3-9.09h-30.61c-24.24,0-44.95,9.2-62.12,27.58
			c0-8.49,2.73-18.28,8.18-29.39l16.97-34.85c9.49-19.19,23.84-28.79,43.03-28.79h72.73c14.95,0,26.46,4.7,34.55,14.09
			c8.08,9.39,12.12,21.47,12.12,36.21v250C1427.3-951.4,1432.25-934.13,1442.15-923.22z M1342.76-994.13v-103.33l-20.61,16.06
			c-7.48,5.66-11.21,15.56-11.21,29.7v44.24c0,8.89,4.55,13.33,13.64,13.33H1342.76z"/>
		<path class="st1" d="M1644.88-980.19c0,20.61-6.87,35.76-20.61,45.46c-15.56,10.91-40.71,16.36-75.46,16.36
			c-28.08,0-48.79-3.13-62.12-9.39c-21.01-9.49-31.52-27.77-31.52-54.85v-82.73l3.03,0.3c1.01,14.95,6.46,28.49,16.36,40.61
			c11.11,13.54,24.34,20.61,39.7,21.21c13.13,0.61,23.53-1.01,31.21-4.85c9.09-4.65,13.53-12.32,13.33-23.03
			c-0.41-10.1-4.85-18.79-13.33-26.06c-1.42-1.01-10-6.36-25.76-16.06c-23.64-14.34-36.87-22.73-39.7-25.15
			c-16.77-13.74-25.15-29.29-25.15-46.67v-64.24c0-45.46,32.73-68.38,98.18-68.79c61.21-0.2,91.82,21.52,91.82,65.15v58.18h-3.03
			c-5.86-25.05-23.74-38.18-53.64-39.39c-25.45-1.01-38.29,8.39-38.49,28.18c0,11.11,8.18,21.62,24.55,31.52
			c28.28,17.17,43.53,26.77,45.76,28.79c16.56,13.94,24.85,31.52,24.85,52.73V-980.19z"/>
		<path class="st1" d="M1908.22-923.22h-94.85l-35.76-116.06c-2.02-6.46-5.26-9.49-9.7-9.09c-4.45,0.41-6.67,5.05-6.67,13.94v88.18
			c0,11.92,5.55,18.79,16.67,20.61v2.42h-100.3v-415.46c0-16.16-5.86-24.44-17.58-24.85v-2.73l101.21-78.49v236.67l16.67-25.46
			c8.08-12.32,11.11-25.15,9.09-38.49h108.18l-73.03,107.88l63.03,203.34c2.62,8.29,5.05,14.65,7.27,19.09
			c4.24,7.88,9.49,13.23,15.76,16.06V-923.22z"/>
		<path class="st1" d="M2111.86-997.77c-0.2,49.7-20.51,74.55-60.91,74.55h-100.61c-27.88,0-41.82-13.64-41.82-40.91v-268.49
			c0-12.12,4.34-21.71,13.03-28.79c8.68-7.07,19.19-10.61,31.52-10.61h117.27c10.71,0,19.59,3.23,26.67,9.7
			c7.68,7.27,11.52,16.77,11.52,28.49v75.46c0,16.36-7.78,31.01-23.33,43.94l-67.58,56.06c-15.36,12.73-22.93,24.65-22.73,35.76
			c0.4,16.77,12.93,25.15,37.58,25.15h22.73c26.67,0,43.74-9.8,51.21-29.39l2.73-0.3
			C2111.15-1019.48,2112.06-1009.69,2111.86-997.77z M2025.19-1184.74v-4.85c0-15.55-5.56-23.13-16.67-22.73
			c-11.52,0.41-17.27,8.89-17.27,25.45v54.55l19.39-16.36C2020.34-1156.56,2025.19-1168.58,2025.19-1184.74z"/>
		<path class="st1" d="M2340.65-1174.14l-77.88,72.43v-81.52c0-16.97-5.66-25.46-16.97-25.46c-12.53-0.4-18.79,8.29-18.79,26.06
			v234.25c0,12.53,5.55,19.7,16.67,21.52v3.64h-100.3v-253.94c0-16.16-5.86-24.44-17.58-24.85v-2.73l101.21-80.61v35.15
			c15.76-16.56,35.15-24.95,58.18-25.15c36.97-0.4,55.46,17.48,55.46,53.64V-1174.14z"/>
	</g>
</g>
<g>
	<g>
		<path d="M637.59,880.4c-7.27,11.52-10.91,25.56-10.91,42.12v354.85c0,38.18-9.6,63.03-28.79,74.55
			c-11.72,6.87-35.86,10.61-72.43,11.21c-34.35,0.4-57.68-4.04-70-13.33c-12.93-10.1-19.39-29.6-19.39-58.49l-0.3-47.88l75.46,36.36
			v7.88c0,14.55,3.94,21.82,11.82,21.82c7.27,0,10.91-7.48,10.91-22.42v-59.09c-13.33,3.43-26.36,5.05-39.09,4.85
			c-30.1-0.2-49.9-11.41-59.39-33.64c-4.45-10.3-6.67-27.37-6.67-51.21l-0.3-184.25c0-58.38,21.52-87.58,64.55-87.58
			c25.05,0,41.92,8.08,50.61,24.24c1.61-8.08,4.34-14.74,8.18-20H637.59z M542.75,1139.5V982.83c0-12.32-3.94-18.49-11.82-18.49
			h-3.64c-8.29,0-12.42,6.17-12.42,18.49v156.67c0,10.51,3.94,15.76,11.82,15.76h4.24C538.81,1155.25,542.75,1150,542.75,1139.5z"/>
		<path d="M858.2,957.98l-0.3,196.67c0,36.97-11.42,60.71-34.24,71.21c-11.11,5.05-32.83,7.47-65.15,7.27
			c-33.74-0.2-55.56-2.33-65.46-6.36c-23.23-10.1-34.85-33.64-34.85-70.61l-0.3-197.88c0-34.55,10.61-58.08,31.82-70.61
			c14.34-8.48,37.27-12.73,68.79-12.73c33.33,0,56.46,3.74,69.4,11.21C848.1,897.88,858.2,921.82,858.2,957.98z M773.66,1127.68
			V991.31c0-14.55-4.95-22.02-14.85-22.42c-10.91-0.4-16.36,7.07-16.36,22.42v136.37c0,10.71,5.35,16.06,16.06,16.06
			C768.6,1143.74,773.66,1138.39,773.66,1127.68z"/>
		<path d="M1091.24,1229.19h-65.76c-11.11,0-19.29-3.74-24.55-11.21c-0.81-1.21-4.04-8.68-9.7-22.42
			c-8.49,15.56-13.74,24.35-15.76,26.36c-5.05,4.85-14.14,7.27-27.27,7.27h-24.85c-27.88,0-41.82-23.84-41.82-71.52V922.83
			c0-12.93,3.99-23.23,11.97-30.91c7.98-7.68,18.53-11.52,31.67-11.52h64.24l0.3-66.67c0-15.55-5.96-23.84-17.88-24.85v-1.52
			l101.21-79.7v475.46C1073.06,1199.5,1079.12,1214.85,1091.24,1229.19z M991.54,1147.68V962.83c0-12.93-4.75-19.39-14.24-19.39
			c-11.32,0-16.97,6.67-16.97,20v184.55c0,11.72,5.65,17.58,16.97,17.58C986.79,1165.56,991.54,1159.6,991.54,1147.68z"/>
		<path d="M1231.54,880.4l-15.15,65.76h-19.7v260c0,11.11,5.55,17.58,16.67,19.39v3.64h-100.3V813.73
			c0-16.16-5.86-24.44-17.58-24.85v-2.42l101.21-78.79V880.4H1231.54z"/>
		<path d="M1442.15,1229.19h-65.46c-19.2,0-29.7-13.64-31.52-40.91h-0.91c-9.5,27.27-22.63,40.91-39.39,40.91h-36.36
			c-27.68,0-41.52-12.93-41.52-38.79v-85.15c0-17.98,0.71-29.8,2.12-35.46c1.41-5.65,4.95-10.8,10.61-15.45l92.73-76.06
			c6.87-5.65,10.3-11.21,10.3-16.67v-10c0-6.06-3.44-9.09-10.3-9.09h-30.61c-24.24,0-44.95,9.2-62.12,27.58
			c0-8.49,2.73-18.28,8.18-29.39l16.97-34.85c9.49-19.19,23.84-28.79,43.03-28.79h72.73c14.95,0,26.46,4.7,34.55,14.09
			c8.08,9.39,12.12,21.47,12.12,36.21v250C1427.3,1201.01,1432.25,1218.29,1442.15,1229.19z M1342.76,1158.28v-103.33l-20.61,16.06
			c-7.48,5.66-11.21,15.56-11.21,29.7v44.24c0,8.89,4.55,13.33,13.64,13.33H1342.76z"/>
		<path d="M1644.88,1172.22c0,20.61-6.87,35.76-20.61,45.46c-15.56,10.91-40.71,16.36-75.46,16.36c-28.08,0-48.79-3.13-62.12-9.39
			c-21.01-9.49-31.52-27.77-31.52-54.85v-82.73l3.03,0.3c1.01,14.95,6.46,28.49,16.36,40.61c11.11,13.54,24.34,20.61,39.7,21.21
			c13.13,0.61,23.53-1.01,31.21-4.85c9.09-4.65,13.53-12.32,13.33-23.03c-0.41-10.1-4.85-18.79-13.33-26.06
			c-1.42-1.01-10-6.36-25.76-16.06c-23.64-14.34-36.87-22.73-39.7-25.15c-16.77-13.74-25.15-29.29-25.15-46.67v-64.24
			c0-45.46,32.73-68.38,98.18-68.79c61.21-0.2,91.82,21.52,91.82,65.15v58.18h-3.03c-5.86-25.05-23.74-38.18-53.64-39.39
			c-25.45-1.01-38.29,8.39-38.49,28.18c0,11.11,8.18,21.62,24.55,31.52c28.28,17.17,43.53,26.77,45.76,28.79
			c16.56,13.94,24.85,31.52,24.85,52.73V1172.22z"/>
		<path d="M1908.22,1229.19h-94.85l-35.76-116.06c-2.02-6.46-5.26-9.49-9.7-9.09c-4.45,0.41-6.67,5.05-6.67,13.94v88.18
			c0,11.92,5.55,18.79,16.67,20.61v2.42h-100.3V813.73c0-16.16-5.86-24.44-17.58-24.85v-2.73l101.21-78.49v236.67l16.67-25.46
			c8.08-12.32,11.11-25.15,9.09-38.49h108.18l-73.03,107.88l63.03,203.34c2.62,8.29,5.05,14.65,7.27,19.09
			c4.24,7.88,9.49,13.23,15.76,16.06V1229.19z"/>
		<path d="M2111.86,1154.65c-0.2,49.7-20.51,74.55-60.91,74.55h-100.61c-27.88,0-41.82-13.64-41.82-40.91V919.8
			c0-12.12,4.34-21.71,13.03-28.79c8.68-7.07,19.19-10.61,31.52-10.61h117.27c10.71,0,19.59,3.23,26.67,9.7
			c7.68,7.27,11.52,16.77,11.52,28.49v75.46c0,16.36-7.78,31.01-23.33,43.94l-67.58,56.06c-15.36,12.73-22.93,24.65-22.73,35.76
			c0.4,16.77,12.93,25.15,37.58,25.15h22.73c26.67,0,43.74-9.8,51.21-29.39l2.73-0.3
			C2111.15,1132.93,2112.06,1142.73,2111.86,1154.65z M2025.19,967.68v-4.85c0-15.55-5.56-23.13-16.67-22.73
			c-11.52,0.41-17.27,8.89-17.27,25.45v54.55l19.39-16.36C2020.34,995.86,2025.19,983.84,2025.19,967.68z"/>
		<path d="M2340.65,978.28l-77.88,72.43v-81.52c0-16.97-5.66-25.46-16.97-25.46c-12.53-0.4-18.79,8.29-18.79,26.06v234.25
			c0,12.53,5.55,19.7,16.67,21.52v3.64h-100.3V975.25c0-16.16-5.86-24.44-17.58-24.85v-2.73l101.21-80.61v35.15
			c15.76-16.56,35.15-24.95,58.18-25.15c36.97-0.4,55.46,17.48,55.46,53.64V978.28z"/>
	</g>
</g>
<g>
	<g>
		<g>
			<path d="M-1971.92,848.24c-6.59,10.43-9.88,23.15-9.88,38.15v321.38c0,34.58-8.69,57.09-26.07,67.52
				c-10.61,6.22-32.48,9.61-65.59,10.15c-31.11,0.36-52.24-3.66-63.4-12.08c-11.71-9.15-17.56-26.81-17.56-52.97l-0.27-43.36
				l68.34,32.93v7.14c0,13.17,3.57,19.76,10.7,19.76c6.59,0,9.88-6.77,9.88-20.31v-53.52c-12.08,3.11-23.88,4.57-35.4,4.39
				c-27.27-0.18-45.19-10.33-53.79-30.46c-4.03-9.33-6.04-24.79-6.04-46.38l-0.27-166.87c0-52.87,19.49-79.32,58.46-79.32
				c22.69,0,37.96,7.32,45.83,21.96c1.46-7.32,3.93-13.35,7.41-18.11H-1971.92z M-2057.82,1082.89V941
				c0-11.16-3.57-16.74-10.7-16.74h-3.29c-7.5,0-11.25,5.58-11.25,16.74v141.89c0,9.52,3.57,14.27,10.7,14.27h3.84
				C-2061.39,1097.17-2057.82,1092.41-2057.82,1082.89z"/>
			<path d="M-1772.12,918.5l-0.27,178.12c0,33.48-10.34,54.98-31.01,64.5c-10.06,4.57-29.74,6.77-59.01,6.59
				c-30.56-0.18-50.32-2.11-59.28-5.76c-21.04-9.15-31.56-30.46-31.56-63.95l-0.27-179.22c0-31.29,9.61-52.6,28.82-63.95
				c12.99-7.68,33.76-11.53,62.3-11.53c30.19,0,51.14,3.39,62.85,10.15C-1781.27,864.06-1772.12,885.75-1772.12,918.5z
				 M-1848.69,1072.19v-123.5c0-13.17-4.49-19.94-13.45-20.31c-9.88-0.36-14.82,6.41-14.82,20.31v123.5
				c0,9.7,4.85,14.55,14.55,14.55C-1853.26,1086.74-1848.69,1081.89-1848.69,1072.19z"/>
			<path d="M-1561.06,1164.13h-59.56c-10.06,0-17.48-3.38-22.23-10.15c-0.73-1.1-3.66-7.87-8.78-20.31
				c-7.68,14.09-12.44,22.05-14.27,23.88c-4.58,4.39-12.81,6.59-24.7,6.59h-22.5c-25.25,0-37.87-21.59-37.87-64.77v-212.7
				c0-11.71,3.61-21.04,10.84-27.99c7.23-6.95,16.78-10.43,28.68-10.43h58.18l0.27-60.38c0-14.09-5.4-21.59-16.19-22.5v-1.37
				l91.67-72.18v430.61C-1577.53,1137.23-1572.04,1151.14-1561.06,1164.13z M-1651.36,1090.3V922.89c0-11.71-4.3-17.56-12.9-17.56
				c-10.25,0-15.37,6.04-15.37,18.11v167.14c0,10.61,5.12,15.92,15.37,15.92C-1655.66,1106.5-1651.36,1101.1-1651.36,1090.3z"/>
			<path d="M-1433.99,848.24l-13.72,59.56h-17.84v235.48c0,10.06,5.03,15.92,15.09,17.57v3.29h-90.84V787.86
				c0-14.64-5.31-22.14-15.92-22.5v-2.2l91.67-71.36v156.44H-1433.99z"/>
			<path d="M-1243.25,1164.13h-59.28c-17.38,0-26.9-12.35-28.54-37.05h-0.82c-8.6,24.7-20.49,37.05-35.68,37.05h-32.93
				c-25.07,0-37.6-11.71-37.6-35.13v-77.12c0-16.28,0.64-26.99,1.92-32.11c1.28-5.12,4.48-9.79,9.61-14l83.98-68.89
				c6.22-5.12,9.33-10.15,9.33-15.09v-9.06c0-5.49-3.11-8.23-9.33-8.23h-27.72c-21.96,0-40.71,8.33-56.26,24.98
				c0-7.68,2.47-16.56,7.41-26.62l15.37-31.56c8.6-17.38,21.59-26.07,38.97-26.07h65.87c13.54,0,23.97,4.25,31.29,12.76
				c7.32,8.51,10.98,19.44,10.98,32.8v226.42C-1256.69,1138.61-1252.21,1154.25-1243.25,1164.13z M-1333.27,1099.91v-93.59
				l-18.66,14.55c-6.77,5.12-10.15,14.09-10.15,26.9v40.07c0,8.05,4.12,12.08,12.35,12.08H-1333.27z"/>
			<path d="M-1059.64,1112.53c0,18.66-6.22,32.38-18.66,41.17c-14.09,9.88-36.87,14.82-68.34,14.82c-25.43,0-44.19-2.84-56.26-8.51
				c-19.03-8.6-28.54-25.16-28.54-49.68v-74.92l2.74,0.27c0.91,13.54,5.85,25.8,14.82,36.78c10.06,12.26,22.05,18.66,35.95,19.21
				c11.89,0.55,21.31-0.91,28.27-4.39c8.23-4.21,12.26-11.16,12.08-20.86c-0.37-9.15-4.39-17.02-12.08-23.6
				c-1.28-0.91-9.06-5.76-23.33-14.55c-21.41-12.99-33.39-20.58-35.95-22.78c-15.19-12.44-22.78-26.53-22.78-42.27v-58.18
				c0-41.17,29.64-61.93,88.92-62.3c55.44-0.18,83.16,19.49,83.16,59.01v52.69h-2.74c-5.31-22.69-21.5-34.58-48.58-35.68
				c-23.05-0.91-34.68,7.59-34.86,25.52c0,10.06,7.41,19.58,22.23,28.54c25.61,15.55,39.43,24.25,41.44,26.07
				c15,12.62,22.5,28.54,22.5,47.75V1112.53z"/>
			<path d="M-821.14,1164.13h-85.9l-32.39-105.12c-1.83-5.85-4.76-8.6-8.78-8.23c-4.03,0.37-6.04,4.58-6.04,12.62v79.87
				c0,10.8,5.03,17.02,15.09,18.66v2.2H-1030V787.86c0-14.64-5.31-22.14-15.92-22.5v-2.47l91.67-71.08v214.35l15.09-23.05
				c7.32-11.16,10.06-22.78,8.23-34.86h97.98l-66.14,97.71L-842,1130.1c2.38,7.5,4.57,13.27,6.59,17.29
				c3.84,7.14,8.6,11.99,14.27,14.55V1164.13z"/>
			<path d="M-636.71,1096.62c-0.18,45.01-18.57,67.51-55.17,67.51h-91.12c-25.25,0-37.87-12.35-37.87-37.05V883.92
				c0-10.98,3.93-19.67,11.8-26.07c7.86-6.4,17.38-9.61,28.54-9.61h106.21c9.7,0,17.75,2.93,24.15,8.78
				c6.95,6.59,10.43,15.19,10.43,25.8v68.34c0,14.82-7.05,28.09-21.13,39.8l-61.2,50.77c-13.91,11.53-20.77,22.33-20.58,32.38
				c0.36,15.19,11.71,22.78,34.03,22.78h20.58c24.15,0,39.61-8.87,46.38-26.62l2.47-0.27
				C-637.35,1076.95-636.53,1085.82-636.71,1096.62z M-715.2,927.28v-4.39c0-14.09-5.03-20.95-15.09-20.58
				c-10.43,0.37-15.64,8.05-15.64,23.05v49.4l17.56-14.82C-719.59,952.8-715.2,941.92-715.2,927.28z"/>
			<path d="M-429.5,936.88l-70.53,65.59v-73.83c0-15.37-5.12-23.05-15.37-23.05c-11.35-0.36-17.02,7.5-17.02,23.6v212.15
				c0,11.35,5.03,17.84,15.09,19.49v3.29h-90.84V934.14c0-14.64-5.31-22.14-15.92-22.5v-2.47l91.67-73V868
				c14.27-15,31.84-22.6,52.69-22.78c33.48-0.36,50.22,15.83,50.22,48.58V936.88z"/>
		</g>
	</g>
	<g>
		<path class="st3" d="M-2626.65,896.66v16.26c0,5.94,4.51,10.84,10.29,11.46l11.7,2.22c32.71,6.21,65.64,9.31,98.58,9.31
			s65.87-3.1,98.58-9.31l11.7-2.22c5.77-0.62,10.29-5.52,10.29-11.46v-16.26c52.47,2.96,81.21,13.81,82.6,23.6
			c0.02,0.14-0.12,15.23-79.75,38.06c-26.33,7.54-53.92,12.35-81.99,14.31c-27.38,1.85-55.51,1.85-82.85,0
			c-28.09-1.96-55.68-6.77-82.01-14.31c-79.63-22.84-79.77-37.92-79.75-38.08C-2707.86,910.46-2679.12,899.62-2626.65,896.66z
			 M-2599.62,796.05c5.18-4.13,11.88-5.67,18.34-4.19l42.39,9.66c21.48,4.88,44.11,4.89,65.62,0l42.39-9.66
			c6.49-1.48,13.16,0.06,18.34,4.19c5.16,4.12,8.12,10.26,8.12,16.86v53.97l-6.61,1.26c-63.07,11.98-127.04,11.97-190.11,0
			l-6.61-1.26v-53.97C-2607.74,806.31-2604.78,800.16-2599.62,796.05z M-2607.74,886.12l3.08,0.59c32.71,6.21,65.64,9.31,98.58,9.31
			s65.87-3.1,98.58-9.31l3.08-0.59v20.64l-6.61,1.26c-63.07,11.97-127.04,11.97-190.11,0l-6.61-1.26V886.12z M-2634.71,976.5
			c27.6,7.9,56.49,12.95,85.92,15c14.12,0.96,28.48,1.44,42.71,1.44s28.59-0.48,42.73-1.44c29.4-2.05,58.3-7.1,85.9-15
			c86.62-24.84,95.34-44.55,93.26-58.94c-4.04-28.29-55.36-37.42-101.32-39.86v-64.79c0-12.38-5.55-23.92-15.24-31.64
			c-9.7-7.75-22.22-10.6-34.33-7.84l-42.39,9.66c-18.74,4.28-38.47,4.28-57.21,0l-42.39-9.66c-12.11-2.75-24.63,0.1-34.33,7.84
			c-9.69,7.73-15.24,19.26-15.24,31.64v64.79c-45.96,2.44-97.28,11.57-101.32,39.85C-2730.04,931.95-2721.32,951.66-2634.71,976.5z"
			/>
		<path class="st3" d="M-2287.19,1206.31c-139.82,51.34-293.97,51.74-434.06,1.15l-28.88-10.43l16.78-53.96
			c1.27-4.11,4.86-7.17,9.13-7.79l64.48-9.47c5.33-0.78,10.17-3.75,13.29-8.14c3.11-4.38,4.31-9.92,3.3-15.19l-8.66-45.08
			l38.26-11.69l16.48,46.96c2.38,6.78,7.13,12.51,13.36,16.12l52.11,30.14c15.73,9.1,35.3,9.11,51.04,0l52.11-30.14
			c6.23-3.61,10.97-9.33,13.35-16.12l16.49-46.96l38.26,11.69l-8.66,45.08c-1.02,5.27,0.19,10.81,3.3,15.19
			c3.12,4.39,7.96,7.35,13.29,8.14l64.49,9.47c4.27,0.63,7.85,3.69,9.13,7.8l16.78,54L-2287.19,1206.31z M-2241.88,1198.16
			l-18.87-60.71l0,0c-3.43-11.01-13.02-19.21-24.43-20.88l-64.48-9.47l-1.38,9.35l0.61-10.4l9.93-51.61
			c1.11-5.8-2.32-11.47-7.96-13.19l-51.4-15.7c-5.97-1.82-12.2,1.38-14.22,7.21l-18.83,53.65c-0.89,2.53-2.66,4.67-4.99,6.02
			l-52.1,30.14c-9.91,5.73-22.2,5.72-32.11,0l-52.1-30.14c-2.33-1.35-4.1-3.49-4.99-6.02l-18.83-53.64
			c-2.05-5.84-8.3-9.03-14.25-7.21l-51.39,15.7c-5.66,1.73-9.08,7.42-7.94,13.2l9.92,51.6l-0.77,1.05l-64.48,9.47
			c-11.43,1.68-21.02,9.88-24.44,20.89l-18.87,60.7c-1.84,5.91,1.28,12.17,7.09,14.26l35.52,12.83
			c71.59,25.86,146.73,38.78,221.88,38.78c76.29,0,152.59-13.32,225.12-39.96l31.74-11.66
			C-2243.15,1210.28-2240.06,1204.03-2241.88,1198.16z"/>
	</g>
</g>
<g>
	<g>
		<path class="st1" d="M-1971.92-1122.29c-6.59,10.43-9.88,23.15-9.88,38.15v321.38c0,34.58-8.69,57.09-26.07,67.52
			c-10.61,6.22-32.48,9.61-65.59,10.15c-31.11,0.36-52.24-3.66-63.4-12.08c-11.71-9.15-17.56-26.81-17.56-52.97l-0.27-43.36
			l68.34,32.93v7.14c0,13.17,3.57,19.76,10.7,19.76c6.59,0,9.88-6.77,9.88-20.31v-53.52c-12.08,3.11-23.88,4.57-35.4,4.39
			c-27.27-0.18-45.19-10.33-53.79-30.46c-4.03-9.33-6.04-24.79-6.04-46.38l-0.27-166.87c0-52.87,19.49-79.32,58.46-79.32
			c22.69,0,37.96,7.32,45.83,21.96c1.46-7.32,3.93-13.35,7.41-18.11H-1971.92z M-2057.82-887.63v-141.89
			c0-11.16-3.57-16.74-10.7-16.74h-3.29c-7.5,0-11.25,5.58-11.25,16.74v141.89c0,9.52,3.57,14.27,10.7,14.27h3.84
			C-2061.39-873.36-2057.82-878.11-2057.82-887.63z"/>
		<path class="st1" d="M-1772.12-1052.03l-0.27,178.12c0,33.48-10.34,54.98-31.01,64.5c-10.06,4.57-29.74,6.77-59.01,6.59
			c-30.56-0.18-50.32-2.11-59.28-5.76c-21.04-9.15-31.56-30.46-31.56-63.95l-0.27-179.22c0-31.29,9.61-52.6,28.82-63.95
			c12.99-7.68,33.76-11.53,62.3-11.53c30.19,0,51.14,3.39,62.85,10.15C-1781.27-1106.46-1772.12-1084.78-1772.12-1052.03z
			 M-1848.69-898.33v-123.5c0-13.17-4.49-19.94-13.45-20.31c-9.88-0.36-14.82,6.41-14.82,20.31v123.5c0,9.7,4.85,14.55,14.55,14.55
			C-1853.26-883.79-1848.69-888.63-1848.69-898.33z"/>
		<path class="st1" d="M-1561.06-806.39h-59.56c-10.06,0-17.48-3.38-22.23-10.15c-0.73-1.1-3.66-7.87-8.78-20.31
			c-7.68,14.09-12.44,22.05-14.27,23.88c-4.58,4.39-12.81,6.59-24.7,6.59h-22.5c-25.25,0-37.87-21.59-37.87-64.77v-212.7
			c0-11.71,3.61-21.04,10.84-27.99c7.23-6.95,16.78-10.43,28.68-10.43h58.18l0.27-60.38c0-14.09-5.4-21.59-16.19-22.5v-1.37
			l91.67-72.18v430.61C-1577.53-833.29-1572.04-819.38-1561.06-806.39z M-1651.36-880.22v-167.42c0-11.71-4.3-17.56-12.9-17.56
			c-10.25,0-15.37,6.04-15.37,18.11v167.14c0,10.61,5.12,15.92,15.37,15.92C-1655.66-864.03-1651.36-869.42-1651.36-880.22z"/>
		<path class="st1" d="M-1433.99-1122.29l-13.72,59.56h-17.84v235.48c0,10.06,5.03,15.92,15.09,17.57v3.29h-90.84v-376.27
			c0-14.64-5.31-22.14-15.92-22.5v-2.2l91.67-71.36v156.44H-1433.99z"/>
		<path class="st1" d="M-1243.25-806.39h-59.28c-17.38,0-26.9-12.35-28.54-37.05h-0.82c-8.6,24.7-20.49,37.05-35.68,37.05h-32.93
			c-25.07,0-37.6-11.71-37.6-35.13v-77.12c0-16.28,0.64-26.99,1.92-32.11c1.28-5.12,4.48-9.79,9.61-14l83.98-68.89
			c6.22-5.12,9.33-10.15,9.33-15.09v-9.06c0-5.49-3.11-8.23-9.33-8.23h-27.72c-21.96,0-40.71,8.33-56.26,24.98
			c0-7.68,2.47-16.56,7.41-26.62l15.37-31.56c8.6-17.38,21.59-26.07,38.97-26.07h65.87c13.54,0,23.97,4.25,31.29,12.76
			c7.32,8.51,10.98,19.44,10.98,32.8v226.42C-1256.69-831.92-1252.21-816.27-1243.25-806.39z M-1333.27-870.61v-93.59l-18.66,14.55
			c-6.77,5.12-10.15,14.09-10.15,26.9v40.07c0,8.05,4.12,12.08,12.35,12.08H-1333.27z"/>
		<path class="st1" d="M-1059.64-857.99c0,18.66-6.22,32.38-18.66,41.17c-14.09,9.88-36.87,14.82-68.34,14.82
			c-25.43,0-44.19-2.84-56.26-8.51c-19.03-8.6-28.54-25.16-28.54-49.68v-74.92l2.74,0.27c0.91,13.54,5.85,25.8,14.82,36.78
			c10.06,12.26,22.05,18.66,35.95,19.21c11.89,0.55,21.31-0.91,28.27-4.39c8.23-4.21,12.26-11.16,12.08-20.86
			c-0.37-9.15-4.39-17.02-12.08-23.6c-1.28-0.91-9.06-5.76-23.33-14.55c-21.41-12.99-33.39-20.58-35.95-22.78
			c-15.19-12.44-22.78-26.53-22.78-42.27v-58.18c0-41.17,29.64-61.93,88.92-62.3c55.44-0.18,83.16,19.49,83.16,59.01v52.69h-2.74
			c-5.31-22.69-21.5-34.58-48.58-35.68c-23.05-0.91-34.68,7.59-34.86,25.52c0,10.06,7.41,19.58,22.23,28.54
			c25.61,15.55,39.43,24.25,41.44,26.07c15,12.62,22.5,28.54,22.5,47.75V-857.99z"/>
		<path class="st1" d="M-821.14-806.39h-85.9l-32.39-105.12c-1.83-5.85-4.76-8.6-8.78-8.23c-4.03,0.37-6.04,4.58-6.04,12.62v79.87
			c0,10.8,5.03,17.02,15.09,18.66v2.2H-1030v-376.27c0-14.64-5.31-22.14-15.92-22.5v-2.47l91.67-71.08v214.35l15.09-23.05
			c7.32-11.16,10.06-22.78,8.23-34.86h97.98l-66.14,97.71L-842-840.42c2.38,7.5,4.57,13.27,6.59,17.29
			c3.84,7.14,8.6,11.99,14.27,14.55V-806.39z"/>
		<path class="st1" d="M-636.71-873.91c-0.18,45.01-18.57,67.51-55.17,67.51h-91.12c-25.25,0-37.87-12.35-37.87-37.05v-243.16
			c0-10.98,3.93-19.67,11.8-26.07c7.86-6.4,17.38-9.61,28.54-9.61h106.21c9.7,0,17.75,2.93,24.15,8.78
			c6.95,6.59,10.43,15.19,10.43,25.8v68.34c0,14.82-7.05,28.09-21.13,39.8l-61.2,50.77c-13.91,11.53-20.77,22.33-20.58,32.38
			c0.36,15.19,11.71,22.78,34.03,22.78h20.58c24.15,0,39.61-8.87,46.38-26.62l2.47-0.27C-637.35-893.57-636.53-884.7-636.71-873.91z
			 M-715.2-1043.24v-4.39c0-14.09-5.03-20.95-15.09-20.58c-10.43,0.37-15.64,8.05-15.64,23.05v49.4l17.56-14.82
			C-719.59-1017.72-715.2-1028.6-715.2-1043.24z"/>
		<path class="st1" d="M-429.5-1033.64l-70.53,65.59v-73.83c0-15.37-5.12-23.05-15.37-23.05c-11.35-0.36-17.02,7.5-17.02,23.6
			v212.15c0,11.35,5.03,17.84,15.09,19.49v3.29h-90.84v-229.99c0-14.64-5.31-22.14-15.92-22.5v-2.47l91.67-73v31.84
			c14.27-15,31.84-22.6,52.69-22.78c33.48-0.36,50.22,15.83,50.22,48.58V-1033.64z"/>
	</g>
</g>
<g>
	<path class="st1" d="M-2626.65-1073.87v16.26c0,5.94,4.51,10.84,10.29,11.46l11.7,2.22c32.71,6.21,65.64,9.31,98.58,9.31
		s65.87-3.1,98.58-9.31l11.7-2.22c5.77-0.62,10.29-5.52,10.29-11.46v-16.26c52.47,2.96,81.21,13.81,82.6,23.6
		c0.02,0.14-0.12,15.23-79.75,38.06c-26.33,7.54-53.92,12.35-81.99,14.31c-27.38,1.85-55.51,1.85-82.85,0
		c-28.09-1.96-55.68-6.77-82.01-14.31c-79.63-22.84-79.77-37.92-79.75-38.08C-2707.86-1060.06-2679.12-1070.91-2626.65-1073.87z
		 M-2599.62-1174.48c5.18-4.13,11.88-5.67,18.34-4.19l42.39,9.66c21.48,4.88,44.11,4.89,65.62,0l42.39-9.66
		c6.49-1.48,13.16,0.06,18.34,4.19c5.16,4.12,8.12,10.26,8.12,16.86v53.97l-6.61,1.26c-63.07,11.98-127.04,11.97-190.11,0
		l-6.61-1.26v-53.97C-2607.74-1164.21-2604.78-1170.36-2599.62-1174.48z M-2607.74-1084.4l3.08,0.59
		c32.71,6.21,65.64,9.31,98.58,9.31s65.87-3.1,98.58-9.31l3.08-0.59v20.64l-6.61,1.26c-63.07,11.97-127.04,11.97-190.11,0
		l-6.61-1.26V-1084.4z M-2634.71-994.03c27.6,7.9,56.49,12.95,85.92,15c14.12,0.96,28.48,1.44,42.71,1.44s28.59-0.48,42.73-1.44
		c29.4-2.05,58.3-7.1,85.9-15c86.62-24.84,95.34-44.55,93.26-58.94c-4.04-28.29-55.36-37.42-101.32-39.86v-64.79
		c0-12.38-5.55-23.92-15.24-31.64c-9.7-7.75-22.22-10.6-34.33-7.84l-42.39,9.66c-18.74,4.28-38.47,4.28-57.21,0l-42.39-9.66
		c-12.11-2.75-24.63,0.1-34.33,7.84c-9.69,7.73-15.24,19.26-15.24,31.64v64.79c-45.96,2.44-97.28,11.57-101.32,39.85
		C-2730.04-1038.58-2721.32-1018.87-2634.71-994.03z"/>
	<path class="st1" d="M-2287.19-764.21c-139.82,51.34-293.97,51.74-434.06,1.15l-28.88-10.43l16.78-53.96
		c1.27-4.11,4.86-7.17,9.13-7.79l64.48-9.47c5.33-0.78,10.17-3.75,13.29-8.14c3.11-4.38,4.31-9.92,3.3-15.19l-8.66-45.08
		l38.26-11.69l16.48,46.96c2.38,6.78,7.13,12.51,13.36,16.12l52.11,30.14c15.73,9.1,35.3,9.11,51.04,0l52.11-30.14
		c6.23-3.61,10.97-9.33,13.35-16.12l16.49-46.96l38.26,11.69l-8.66,45.08c-1.02,5.27,0.19,10.81,3.3,15.19
		c3.12,4.39,7.96,7.35,13.29,8.14l64.49,9.47c4.27,0.63,7.85,3.69,9.13,7.8l16.78,54L-2287.19-764.21z M-2241.88-772.36
		l-18.87-60.71l0,0c-3.43-11.01-13.02-19.21-24.43-20.88l-64.48-9.47l-1.38,9.35l0.61-10.4l9.93-51.61
		c1.11-5.8-2.32-11.47-7.96-13.19l-51.4-15.7c-5.97-1.82-12.2,1.38-14.22,7.21l-18.83,53.64c-0.89,2.53-2.66,4.67-4.99,6.02
		l-52.1,30.14c-9.91,5.73-22.2,5.72-32.11,0l-52.1-30.14c-2.33-1.35-4.1-3.49-4.99-6.02l-18.83-53.64
		c-2.05-5.84-8.3-9.03-14.25-7.21l-51.39,15.7c-5.66,1.73-9.08,7.41-7.94,13.2l9.92,51.6l-0.77,1.05l-64.48,9.47
		c-11.43,1.68-21.02,9.88-24.44,20.89l-18.87,60.7c-1.84,5.91,1.28,12.17,7.09,14.26l35.52,12.83
		c71.59,25.86,146.73,38.78,221.88,38.78c76.29,0,152.59-13.32,225.12-39.96l31.74-11.66
		C-2243.15-760.24-2240.06-766.5-2241.88-772.36z"/>
</g>
<g>
</g>
<g>
</g>
<g>
</g>
<g>
</g>
<g>
</g>
<g>
</g>
</svg>
