<svg width="540" height="503" viewBox="0 0 540 503" fill="none" xmlns="http://www.w3.org/2000/svg">
<path d="M149.127 129.86V146.12C149.127 152.06 153.637 156.96 159.417 157.58L171.117 159.8C203.827 166.01 236.757 169.11 269.697 169.11C302.637 169.11 335.567 166.01 368.277 159.8L379.977 157.58C385.747 156.96 390.267 152.06 390.267 146.12V129.86C442.737 132.82 471.477 143.67 472.867 153.46C472.887 153.6 472.747 168.69 393.117 191.52C366.787 199.06 339.197 203.87 311.127 205.83C283.747 207.68 255.617 207.68 228.277 205.83C200.187 203.87 172.597 199.06 146.267 191.52C66.6373 168.68 66.4973 153.6 66.5173 153.44C67.9173 143.66 96.6574 132.82 149.127 129.86ZM176.157 29.25C181.337 25.12 188.037 23.58 194.497 25.06L236.887 34.7201C258.367 39.6001 280.997 39.6101 302.507 34.7201L344.897 25.06C351.387 23.58 358.057 25.12 363.237 29.25C368.397 33.37 371.357 39.51 371.357 46.11V100.08L364.747 101.34C301.677 113.32 237.707 113.31 174.637 101.34L168.027 100.08V46.11C168.037 39.51 170.997 33.36 176.157 29.25ZM168.037 119.32L171.117 119.91C203.827 126.12 236.757 129.22 269.697 129.22C302.637 129.22 335.567 126.12 368.277 119.91L371.357 119.32V139.96L364.747 141.22C301.677 153.19 237.707 153.19 174.637 141.22L168.027 139.96V119.32H168.037ZM141.067 209.7C168.667 217.6 197.557 222.65 226.987 224.7C241.107 225.66 255.467 226.14 269.697 226.14C283.927 226.14 298.287 225.66 312.427 224.7C341.827 222.65 370.727 217.6 398.327 209.7C484.947 184.86 493.667 165.15 491.587 150.76C487.547 122.47 436.227 113.34 390.267 110.9V46.11C390.267 33.73 384.717 22.1901 375.027 14.4701C365.327 6.72007 352.807 3.87004 340.697 6.63004L298.307 16.2901C279.567 20.5701 259.837 20.5701 241.097 16.2901L198.707 6.63004C186.597 3.88004 174.077 6.73007 164.377 14.4701C154.687 22.2001 149.137 33.73 149.137 46.11V110.9C103.177 113.34 51.8573 122.47 47.8173 150.75C45.7373 165.15 54.4573 184.86 141.067 209.7Z" fill="#666666" stroke="white" stroke-width="10" stroke-miterlimit="10"/>
<path d="M488.587 439.51C348.767 490.85 194.617 491.25 54.5274 440.66L25.6475 430.23L42.4273 376.27C43.6973 372.16 47.2875 369.1 51.5575 368.48L116.037 359.01C121.367 358.23 126.207 355.26 129.327 350.87C132.437 346.49 133.638 340.95 132.628 335.68L123.967 290.6L162.227 278.91L178.707 325.87C181.087 332.65 185.837 338.38 192.067 341.99L244.177 372.13C259.907 381.23 279.477 381.24 295.217 372.13L347.327 341.99C353.557 338.38 358.297 332.66 360.677 325.87L377.167 278.91L415.427 290.6L406.767 335.68C405.747 340.95 406.957 346.49 410.067 350.87C413.187 355.26 418.028 358.22 423.358 359.01L487.848 368.48C492.118 369.11 495.697 372.17 496.977 376.28L513.757 430.28L488.587 439.51ZM533.898 431.36L515.027 370.65C511.597 359.64 502.008 351.44 490.598 349.77L426.118 340.3L424.737 349.65L425.348 339.25L435.277 287.64C436.387 281.84 432.957 276.17 427.317 274.45L375.917 258.75C369.947 256.93 363.717 260.13 361.697 265.96L342.868 319.61C341.978 322.14 340.208 324.28 337.878 325.63L285.777 355.77C275.867 361.5 263.577 361.49 253.667 355.77L201.567 325.63C199.237 324.28 197.467 322.14 196.577 319.61L177.747 265.97C175.697 260.13 169.447 256.94 163.497 258.76L112.107 274.46C106.447 276.19 103.027 281.88 104.167 287.66L114.087 339.26L113.317 340.31L48.8375 349.78C37.4075 351.46 27.8175 359.66 24.3975 370.67L5.52742 431.37C3.68742 437.28 6.80751 443.54 12.6175 445.63L48.1375 458.46C119.728 484.32 194.867 497.24 270.017 497.24C346.307 497.24 422.608 483.92 495.138 457.28L526.878 445.62C532.628 443.48 535.718 437.23 533.898 431.36Z" fill="#666666" stroke="white" stroke-width="10" stroke-miterlimit="10"/>
</svg>
